<svg xmlns="http://www.w3.org/2000/svg" viewBox="0 0 64 64">
  <defs>
    <linearGradient id="g" x1="0" y1="0" x2="1" y2="1">
      <stop offset="0%" stop-color="#FFE08A"/>
      <stop offset="55%" stop-color="#FFBF00"/>
      <stop offset="100%" stop-color="#D4AF37"/>
    </linearGradient>
  </defs>
  <rect width="64" height="64" rx="14" fill="#0A0A0B"/>
  <rect x="1" y="1" width="62" height="62" rx="13" fill="none" stroke="url(#g)" stroke-opacity="0.35" stroke-width="1"/>
  <path d="M44 22.5c-2.6-3.4-6.7-5.5-11.4-5.5C24.6 17 18 23.7 18 32s6.6 15 14.6 15c4.7 0 8.8-2.1 11.4-5.5l-5.8-3.3c-1.4 1.6-3.4 2.5-5.6 2.5-4.4 0-8-3.9-8-8.7 0-4.8 3.6-8.7 8-8.7 2.2 0 4.2.9 5.6 2.5l5.8-3.3z" fill="url(#g)"/>
</svg>
